<?xml version="1.0" encoding="utf-8" standalone="no"?>
<!DOCTYPE svg PUBLIC "-//W3C//DTD SVG 1.1//EN"
  "http://www.w3.org/Graphics/SVG/1.1/DTD/svg11.dtd">
<svg xmlns:xlink="http://www.w3.org/1999/xlink" width="460.8pt" height="345.6pt" viewBox="0 0 460.8 345.6" xmlns="http://www.w3.org/2000/svg" version="1.1">
 <metadata>
  <rdf:RDF xmlns:dc="http://purl.org/dc/elements/1.1/" xmlns:cc="http://creativecommons.org/ns#" xmlns:rdf="http://www.w3.org/1999/02/22-rdf-syntax-ns#">
   <cc:Work>
    <dc:type rdf:resource="http://purl.org/dc/dcmitype/StillImage"/>
    <dc:date>2025-06-02T21:29:09.191239</dc:date>
    <dc:format>image/svg+xml</dc:format>
    <dc:creator>
     <cc:Agent>
      <dc:title>Matplotlib v3.6.3, https://matplotlib.org/</dc:title>
     </cc:Agent>
    </dc:creator>
   </cc:Work>
  </rdf:RDF>
 </metadata>
 <defs>
  <style type="text/css">*{stroke-linejoin: round; stroke-linecap: butt}</style>
 </defs>
 <g id="figure_1">
  <g id="patch_1">
   <path d="M 0 345.6 
L 460.8 345.6 
L 460.8 0 
L 0 0 
z
" style="fill: #ffffff"/>
  </g>
  <g id="axes_1">
   <g id="patch_2">
    <path d="M 57.6 307.584 
L 414.72 307.584 
L 414.72 41.472 
L 57.6 41.472 
z
" style="fill: #ffffff"/>
   </g>
   <g id="matplotlib.axis_1">
    <g id="xtick_1">
     <g id="line2d_1">
      <defs>
       <path id="m3773aba39a" d="M 0 0 
L 0 3.5 
" style="stroke: #000000; stroke-width: 0.8"/>
      </defs>
      <g>
       <use xlink:href="#m3773aba39a" x="73.832727" y="307.584" style="stroke: #000000; stroke-width: 0.8"/>
      </g>
     </g>
     <g id="text_1">
      <!-- −10 -->
      <g transform="translate(63.280384 322.182437) scale(0.1 -0.1)">
       <defs>
        <path id="DejaVuSans-2212" d="M 678 2272 
L 4684 2272 
L 4684 1741 
L 678 1741 
L 678 2272 
z
" transform="scale(0.015625)"/>
        <path id="DejaVuSans-31" d="M 794 531 
L 1825 531 
L 1825 4091 
L 703 3866 
L 703 4441 
L 1819 4666 
L 2450 4666 
L 2450 531 
L 3481 531 
L 3481 0 
L 794 0 
L 794 531 
z
" transform="scale(0.015625)"/>
        <path id="DejaVuSans-30" d="M 2034 4250 
Q 1547 4250 1301 3770 
Q 1056 3291 1056 2328 
Q 1056 1369 1301 889 
Q 1547 409 2034 409 
Q 2525 409 2770 889 
Q 3016 1369 3016 2328 
Q 3016 3291 2770 3770 
Q 2525 4250 2034 4250 
z
M 2034 4750 
Q 2819 4750 3233 4129 
Q 3647 3509 3647 2328 
Q 3647 1150 3233 529 
Q 2819 -91 2034 -91 
Q 1250 -91 836 529 
Q 422 1150 422 2328 
Q 422 3509 836 4129 
Q 1250 4750 2034 4750 
z
" transform="scale(0.015625)"/>
       </defs>
       <use xlink:href="#DejaVuSans-2212"/>
       <use xlink:href="#DejaVuSans-31" x="83.789062"/>
       <use xlink:href="#DejaVuSans-30" x="147.412109"/>
      </g>
     </g>
    </g>
    <g id="xtick_2">
     <g id="line2d_2">
      <g>
       <use xlink:href="#m3773aba39a" x="142.908162" y="307.584" style="stroke: #000000; stroke-width: 0.8"/>
      </g>
     </g>
     <g id="text_2">
      <!-- 0 -->
      <g transform="translate(139.726912 322.182437) scale(0.1 -0.1)">
       <use xlink:href="#DejaVuSans-30"/>
      </g>
     </g>
    </g>
    <g id="xtick_3">
     <g id="line2d_3">
      <g>
       <use xlink:href="#m3773aba39a" x="211.983598" y="307.584" style="stroke: #000000; stroke-width: 0.8"/>
      </g>
     </g>
     <g id="text_3">
      <!-- 10 -->
      <g transform="translate(205.621098 322.182437) scale(0.1 -0.1)">
       <use xlink:href="#DejaVuSans-31"/>
       <use xlink:href="#DejaVuSans-30" x="63.623047"/>
      </g>
     </g>
    </g>
    <g id="xtick_4">
     <g id="line2d_4">
      <g>
       <use xlink:href="#m3773aba39a" x="281.059033" y="307.584" style="stroke: #000000; stroke-width: 0.8"/>
      </g>
     </g>
     <g id="text_4">
      <!-- 20 -->
      <g transform="translate(274.696533 322.182437) scale(0.1 -0.1)">
       <defs>
        <path id="DejaVuSans-32" d="M 1228 531 
L 3431 531 
L 3431 0 
L 469 0 
L 469 531 
Q 828 903 1448 1529 
Q 2069 2156 2228 2338 
Q 2531 2678 2651 2914 
Q 2772 3150 2772 3378 
Q 2772 3750 2511 3984 
Q 2250 4219 1831 4219 
Q 1534 4219 1204 4116 
Q 875 4013 500 3803 
L 500 4441 
Q 881 4594 1212 4672 
Q 1544 4750 1819 4750 
Q 2544 4750 2975 4387 
Q 3406 4025 3406 3419 
Q 3406 3131 3298 2873 
Q 3191 2616 2906 2266 
Q 2828 2175 2409 1742 
Q 1991 1309 1228 531 
z
" transform="scale(0.015625)"/>
       </defs>
       <use xlink:href="#DejaVuSans-32"/>
       <use xlink:href="#DejaVuSans-30" x="63.623047"/>
      </g>
     </g>
    </g>
    <g id="xtick_5">
     <g id="line2d_5">
      <g>
       <use xlink:href="#m3773aba39a" x="350.134468" y="307.584" style="stroke: #000000; stroke-width: 0.8"/>
      </g>
     </g>
     <g id="text_5">
      <!-- 30 -->
      <g transform="translate(343.771968 322.182437) scale(0.1 -0.1)">
       <defs>
        <path id="DejaVuSans-33" d="M 2597 2516 
Q 3050 2419 3304 2112 
Q 3559 1806 3559 1356 
Q 3559 666 3084 287 
Q 2609 -91 1734 -91 
Q 1441 -91 1130 -33 
Q 819 25 488 141 
L 488 750 
Q 750 597 1062 519 
Q 1375 441 1716 441 
Q 2309 441 2620 675 
Q 2931 909 2931 1356 
Q 2931 1769 2642 2001 
Q 2353 2234 1838 2234 
L 1294 2234 
L 1294 2753 
L 1863 2753 
Q 2328 2753 2575 2939 
Q 2822 3125 2822 3475 
Q 2822 3834 2567 4026 
Q 2313 4219 1838 4219 
Q 1578 4219 1281 4162 
Q 984 4106 628 3988 
L 628 4550 
Q 988 4650 1302 4700 
Q 1616 4750 1894 4750 
Q 2613 4750 3031 4423 
Q 3450 4097 3450 3541 
Q 3450 3153 3228 2886 
Q 3006 2619 2597 2516 
z
" transform="scale(0.015625)"/>
       </defs>
       <use xlink:href="#DejaVuSans-33"/>
       <use xlink:href="#DejaVuSans-30" x="63.623047"/>
      </g>
     </g>
    </g>
   </g>
   <g id="matplotlib.axis_2">
    <g id="ytick_1">
     <g id="line2d_6">
      <defs>
       <path id="m7014ca12d9" d="M 0 0 
L -3.5 0 
" style="stroke: #000000; stroke-width: 0.8"/>
      </defs>
      <g>
       <use xlink:href="#m7014ca12d9" x="57.6" y="295.488" style="stroke: #000000; stroke-width: 0.8"/>
      </g>
     </g>
     <g id="text_6">
      <!-- −10 -->
      <g transform="translate(29.495313 299.287219) scale(0.1 -0.1)">
       <use xlink:href="#DejaVuSans-2212"/>
       <use xlink:href="#DejaVuSans-31" x="83.789062"/>
       <use xlink:href="#DejaVuSans-30" x="147.412109"/>
      </g>
     </g>
    </g>
    <g id="ytick_2">
     <g id="line2d_7">
      <g>
       <use xlink:href="#m7014ca12d9" x="57.6" y="256.468645" style="stroke: #000000; stroke-width: 0.8"/>
      </g>
     </g>
     <g id="text_7">
      <!-- −5 -->
      <g transform="translate(35.857813 260.267864) scale(0.1 -0.1)">
       <defs>
        <path id="DejaVuSans-35" d="M 691 4666 
L 3169 4666 
L 3169 4134 
L 1269 4134 
L 1269 2991 
Q 1406 3038 1543 3061 
Q 1681 3084 1819 3084 
Q 2600 3084 3056 2656 
Q 3513 2228 3513 1497 
Q 3513 744 3044 326 
Q 2575 -91 1722 -91 
Q 1428 -91 1123 -41 
Q 819 9 494 109 
L 494 744 
Q 775 591 1075 516 
Q 1375 441 1709 441 
Q 2250 441 2565 725 
Q 2881 1009 2881 1497 
Q 2881 1984 2565 2268 
Q 2250 2553 1709 2553 
Q 1456 2553 1204 2497 
Q 953 2441 691 2322 
L 691 4666 
z
" transform="scale(0.015625)"/>
       </defs>
       <use xlink:href="#DejaVuSans-2212"/>
       <use xlink:href="#DejaVuSans-35" x="83.789062"/>
      </g>
     </g>
    </g>
    <g id="ytick_3">
     <g id="line2d_8">
      <g>
       <use xlink:href="#m7014ca12d9" x="57.6" y="217.44929" style="stroke: #000000; stroke-width: 0.8"/>
      </g>
     </g>
     <g id="text_8">
      <!-- 0 -->
      <g transform="translate(44.2375 221.248509) scale(0.1 -0.1)">
       <use xlink:href="#DejaVuSans-30"/>
      </g>
     </g>
    </g>
    <g id="ytick_4">
     <g id="line2d_9">
      <g>
       <use xlink:href="#m7014ca12d9" x="57.6" y="178.429935" style="stroke: #000000; stroke-width: 0.8"/>
      </g>
     </g>
     <g id="text_9">
      <!-- 5 -->
      <g transform="translate(44.2375 182.229154) scale(0.1 -0.1)">
       <use xlink:href="#DejaVuSans-35"/>
      </g>
     </g>
    </g>
    <g id="ytick_5">
     <g id="line2d_10">
      <g>
       <use xlink:href="#m7014ca12d9" x="57.6" y="139.410581" style="stroke: #000000; stroke-width: 0.8"/>
      </g>
     </g>
     <g id="text_10">
      <!-- 10 -->
      <g transform="translate(37.875 143.209799) scale(0.1 -0.1)">
       <use xlink:href="#DejaVuSans-31"/>
       <use xlink:href="#DejaVuSans-30" x="63.623047"/>
      </g>
     </g>
    </g>
    <g id="ytick_6">
     <g id="line2d_11">
      <g>
       <use xlink:href="#m7014ca12d9" x="57.6" y="100.391226" style="stroke: #000000; stroke-width: 0.8"/>
      </g>
     </g>
     <g id="text_11">
      <!-- 15 -->
      <g transform="translate(37.875 104.190445) scale(0.1 -0.1)">
       <use xlink:href="#DejaVuSans-31"/>
       <use xlink:href="#DejaVuSans-35" x="63.623047"/>
      </g>
     </g>
    </g>
    <g id="ytick_7">
     <g id="line2d_12">
      <g>
       <use xlink:href="#m7014ca12d9" x="57.6" y="61.371871" style="stroke: #000000; stroke-width: 0.8"/>
      </g>
     </g>
     <g id="text_12">
      <!-- 20 -->
      <g transform="translate(37.875 65.17109) scale(0.1 -0.1)">
       <use xlink:href="#DejaVuSans-32"/>
       <use xlink:href="#DejaVuSans-30" x="63.623047"/>
      </g>
     </g>
    </g>
   </g>
   <g id="line2d_13">
    <path d="M 142.908162 217.44929 
L 142.908162 209.645419 
L 149.815706 209.645419 
L 149.815706 217.44929 
L 156.72325 217.44929 
L 156.72325 225.253161 
L 149.815706 225.253161 
L 149.815706 233.057032 
L 156.72325 233.057032 
L 156.72325 240.860903 
L 149.815706 240.860903 
L 149.815706 233.057032 
L 142.908162 233.057032 
L 142.908162 240.860903 
L 136.000619 240.860903 
L 136.000619 248.664774 
L 142.908162 248.664774 
L 142.908162 256.468645 
L 136.000619 256.468645 
L 136.000619 248.664774 
L 129.093075 248.664774 
L 129.093075 240.860903 
L 136.000619 240.860903 
L 136.000619 233.057032 
L 129.093075 233.057032 
L 129.093075 240.860903 
L 122.185532 240.860903 
L 122.185532 233.057032 
L 115.277988 233.057032 
L 115.277988 240.860903 
L 108.370445 240.860903 
L 108.370445 248.664774 
L 115.277988 248.664774 
L 115.277988 256.468645 
L 108.370445 256.468645 
L 108.370445 248.664774 
L 101.462901 248.664774 
L 101.462901 240.860903 
L 108.370445 240.860903 
L 108.370445 233.057032 
L 101.462901 233.057032 
L 101.462901 225.253161 
L 108.370445 225.253161 
L 108.370445 233.057032 
L 115.277988 233.057032 
L 115.277988 225.253161 
L 122.185532 225.253161 
L 122.185532 217.44929 
L 115.277988 217.44929 
L 115.277988 225.253161 
L 108.370445 225.253161 
L 108.370445 217.44929 
L 101.462901 217.44929 
L 101.462901 209.645419 
L 108.370445 209.645419 
L 108.370445 201.841548 
L 101.462901 201.841548 
L 101.462901 209.645419 
L 94.555358 209.645419 
L 94.555358 201.841548 
L 87.647814 201.841548 
L 87.647814 209.645419 
L 80.740271 209.645419 
L 80.740271 217.44929 
L 87.647814 217.44929 
L 87.647814 225.253161 
L 80.740271 225.253161 
L 80.740271 217.44929 
L 73.832727 217.44929 
L 73.832727 209.645419 
L 80.740271 209.645419 
L 80.740271 201.841548 
L 73.832727 201.841548 
L 73.832727 194.037677 
L 80.740271 194.037677 
L 80.740271 201.841548 
L 87.647814 201.841548 
L 87.647814 194.037677 
L 94.555358 194.037677 
L 94.555358 186.233806 
L 87.647814 186.233806 
L 87.647814 178.429935 
L 94.555358 178.429935 
L 94.555358 186.233806 
L 101.462901 186.233806 
L 101.462901 194.037677 
L 94.555358 194.037677 
L 94.555358 201.841548 
L 101.462901 201.841548 
L 101.462901 194.037677 
L 108.370445 194.037677 
L 108.370445 201.841548 
L 115.277988 201.841548 
L 115.277988 194.037677 
L 122.185532 194.037677 
L 122.185532 186.233806 
L 115.277988 186.233806 
L 115.277988 194.037677 
L 108.370445 194.037677 
L 108.370445 186.233806 
L 101.462901 186.233806 
L 101.462901 178.429935 
L 108.370445 178.429935 
L 108.370445 170.626065 
L 101.462901 170.626065 
L 101.462901 162.822194 
L 108.370445 162.822194 
L 108.370445 170.626065 
L 115.277988 170.626065 
L 115.277988 162.822194 
L 122.185532 162.822194 
L 122.185532 155.018323 
L 115.277988 155.018323 
L 115.277988 162.822194 
L 108.370445 162.822194 
L 108.370445 155.018323 
L 101.462901 155.018323 
L 101.462901 147.214452 
L 108.370445 147.214452 
L 108.370445 139.410581 
L 101.462901 139.410581 
L 101.462901 147.214452 
L 94.555358 147.214452 
L 94.555358 139.410581 
L 87.647814 139.410581 
L 87.647814 147.214452 
L 80.740271 147.214452 
L 80.740271 155.018323 
L 87.647814 155.018323 
L 87.647814 162.822194 
L 80.740271 162.822194 
L 80.740271 155.018323 
L 73.832727 155.018323 
L 73.832727 147.214452 
L 80.740271 147.214452 
L 80.740271 139.410581 
L 73.832727 139.410581 
L 73.832727 131.60671 
L 80.740271 131.60671 
L 80.740271 139.410581 
L 87.647814 139.410581 
L 87.647814 131.60671 
L 94.555358 131.60671 
L 94.555358 123.802839 
L 87.647814 123.802839 
L 87.647814 115.998968 
L 94.555358 115.998968 
L 94.555358 123.802839 
L 101.462901 123.802839 
L 101.462901 131.60671 
L 94.555358 131.60671 
L 94.555358 139.410581 
L 101.462901 139.410581 
L 101.462901 131.60671 
L 108.370445 131.60671 
L 108.370445 139.410581 
L 115.277988 139.410581 
L 115.277988 131.60671 
L 122.185532 131.60671 
L 122.185532 123.802839 
L 115.277988 123.802839 
L 115.277988 115.998968 
L 122.185532 115.998968 
L 122.185532 123.802839 
L 129.093075 123.802839 
L 129.093075 131.60671 
L 122.185532 131.60671 
L 122.185532 139.410581 
L 129.093075 139.410581 
L 129.093075 147.214452 
L 122.185532 147.214452 
L 122.185532 139.410581 
L 115.277988 139.410581 
L 115.277988 147.214452 
L 108.370445 147.214452 
L 108.370445 155.018323 
L 115.277988 155.018323 
L 115.277988 147.214452 
L 122.185532 147.214452 
L 122.185532 155.018323 
L 129.093075 155.018323 
L 129.093075 162.822194 
L 122.185532 162.822194 
L 122.185532 170.626065 
L 129.093075 170.626065 
L 129.093075 162.822194 
L 136.000619 162.822194 
L 136.000619 170.626065 
L 142.908162 170.626065 
L 142.908162 162.822194 
L 149.815706 162.822194 
L 149.815706 155.018323 
L 142.908162 155.018323 
L 142.908162 162.822194 
L 136.000619 162.822194 
L 136.000619 155.018323 
L 129.093075 155.018323 
L 129.093075 147.214452 
L 136.000619 147.214452 
L 136.000619 139.410581 
L 129.093075 139.410581 
L 129.093075 131.60671 
L 136.000619 131.60671 
L 136.000619 139.410581 
L 142.908162 139.410581 
L 142.908162 131.60671 
L 149.815706 131.60671 
L 149.815706 123.802839 
L 142.908162 123.802839 
L 142.908162 115.998968 
L 149.815706 115.998968 
L 149.815706 123.802839 
L 156.72325 123.802839 
L 156.72325 131.60671 
L 149.815706 131.60671 
L 149.815706 139.410581 
L 156.72325 139.410581 
L 156.72325 131.60671 
L 163.630793 131.60671 
L 163.630793 139.410581 
L 170.538337 139.410581 
L 170.538337 131.60671 
L 177.44588 131.60671 
L 177.44588 123.802839 
L 170.538337 123.802839 
L 170.538337 131.60671 
L 163.630793 131.60671 
L 163.630793 123.802839 
L 156.72325 123.802839 
L 156.72325 115.998968 
L 163.630793 115.998968 
L 163.630793 108.195097 
L 156.72325 108.195097 
L 156.72325 100.391226 
L 163.630793 100.391226 
L 163.630793 108.195097 
L 170.538337 108.195097 
L 170.538337 100.391226 
L 177.44588 100.391226 
L 177.44588 92.587355 
L 170.538337 92.587355 
L 170.538337 100.391226 
L 163.630793 100.391226 
L 163.630793 92.587355 
L 156.72325 92.587355 
L 156.72325 84.783484 
L 163.630793 84.783484 
L 163.630793 76.979613 
L 156.72325 76.979613 
L 156.72325 84.783484 
L 149.815706 84.783484 
L 149.815706 76.979613 
L 142.908162 76.979613 
L 142.908162 84.783484 
L 136.000619 84.783484 
L 136.000619 92.587355 
L 142.908162 92.587355 
L 142.908162 100.391226 
L 136.000619 100.391226 
L 136.000619 92.587355 
L 129.093075 92.587355 
L 129.093075 84.783484 
L 136.000619 84.783484 
L 136.000619 76.979613 
L 129.093075 76.979613 
L 129.093075 69.175742 
L 136.000619 69.175742 
L 136.000619 76.979613 
L 142.908162 76.979613 
L 142.908162 69.175742 
L 149.815706 69.175742 
L 149.815706 61.371871 
L 142.908162 61.371871 
L 142.908162 53.568 
L 149.815706 53.568 
L 149.815706 61.371871 
L 156.72325 61.371871 
L 156.72325 69.175742 
L 149.815706 69.175742 
L 149.815706 76.979613 
L 156.72325 76.979613 
L 156.72325 69.175742 
L 163.630793 69.175742 
L 163.630793 76.979613 
L 170.538337 76.979613 
L 170.538337 69.175742 
L 177.44588 69.175742 
L 177.44588 61.371871 
L 170.538337 61.371871 
L 170.538337 53.568 
L 177.44588 53.568 
L 177.44588 61.371871 
L 184.353424 61.371871 
L 184.353424 69.175742 
L 177.44588 69.175742 
L 177.44588 76.979613 
L 184.353424 76.979613 
L 184.353424 84.783484 
L 177.44588 84.783484 
L 177.44588 76.979613 
L 170.538337 76.979613 
L 170.538337 84.783484 
L 163.630793 84.783484 
L 163.630793 92.587355 
L 170.538337 92.587355 
L 170.538337 84.783484 
L 177.44588 84.783484 
L 177.44588 92.587355 
L 184.353424 92.587355 
L 184.353424 100.391226 
L 177.44588 100.391226 
L 177.44588 108.195097 
L 184.353424 108.195097 
L 184.353424 100.391226 
L 191.260967 100.391226 
L 191.260967 108.195097 
L 198.168511 108.195097 
L 198.168511 100.391226 
L 205.076054 100.391226 
L 205.076054 92.587355 
L 198.168511 92.587355 
L 198.168511 84.783484 
L 205.076054 84.783484 
L 205.076054 92.587355 
L 211.983598 92.587355 
L 211.983598 100.391226 
L 205.076054 100.391226 
L 205.076054 108.195097 
L 211.983598 108.195097 
L 211.983598 115.998968 
L 205.076054 115.998968 
L 205.076054 108.195097 
L 198.168511 108.195097 
L 198.168511 115.998968 
L 191.260967 115.998968 
L 191.260967 123.802839 
L 198.168511 123.802839 
L 198.168511 131.60671 
L 191.260967 131.60671 
L 191.260967 123.802839 
L 184.353424 123.802839 
L 184.353424 115.998968 
L 191.260967 115.998968 
L 191.260967 108.195097 
L 184.353424 108.195097 
L 184.353424 115.998968 
L 177.44588 115.998968 
L 177.44588 108.195097 
L 170.538337 108.195097 
L 170.538337 115.998968 
L 163.630793 115.998968 
L 163.630793 123.802839 
L 170.538337 123.802839 
L 170.538337 115.998968 
L 177.44588 115.998968 
L 177.44588 123.802839 
L 184.353424 123.802839 
L 184.353424 131.60671 
L 177.44588 131.60671 
L 177.44588 139.410581 
L 184.353424 139.410581 
L 184.353424 147.214452 
L 177.44588 147.214452 
L 177.44588 139.410581 
L 170.538337 139.410581 
L 170.538337 147.214452 
L 163.630793 147.214452 
L 163.630793 155.018323 
L 170.538337 155.018323 
L 170.538337 147.214452 
L 177.44588 147.214452 
L 177.44588 155.018323 
L 184.353424 155.018323 
L 184.353424 162.822194 
L 177.44588 162.822194 
L 177.44588 170.626065 
L 184.353424 170.626065 
L 184.353424 162.822194 
L 191.260967 162.822194 
L 191.260967 170.626065 
L 198.168511 170.626065 
L 198.168511 162.822194 
L 205.076054 162.822194 
L 205.076054 155.018323 
L 198.168511 155.018323 
L 198.168511 162.822194 
L 191.260967 162.822194 
L 191.260967 155.018323 
L 184.353424 155.018323 
L 184.353424 147.214452 
L 191.260967 147.214452 
L 191.260967 139.410581 
L 184.353424 139.410581 
L 184.353424 131.60671 
L 191.260967 131.60671 
L 191.260967 139.410581 
L 198.168511 139.410581 
L 198.168511 131.60671 
L 205.076054 131.60671 
L 205.076054 123.802839 
L 198.168511 123.802839 
L 198.168511 115.998968 
L 205.076054 115.998968 
L 205.076054 123.802839 
L 211.983598 123.802839 
L 211.983598 131.60671 
L 205.076054 131.60671 
L 205.076054 139.410581 
L 211.983598 139.410581 
L 211.983598 131.60671 
L 218.891141 131.60671 
L 218.891141 139.410581 
L 225.798685 139.410581 
L 225.798685 131.60671 
L 232.706228 131.60671 
L 232.706228 123.802839 
L 225.798685 123.802839 
L 225.798685 115.998968 
L 232.706228 115.998968 
L 232.706228 123.802839 
L 239.613772 123.802839 
L 239.613772 131.60671 
L 232.706228 131.60671 
L 232.706228 139.410581 
L 239.613772 139.410581 
L 239.613772 147.214452 
L 232.706228 147.214452 
L 232.706228 139.410581 
L 225.798685 139.410581 
L 225.798685 147.214452 
L 218.891141 147.214452 
L 218.891141 155.018323 
L 225.798685 155.018323 
L 225.798685 147.214452 
L 232.706228 147.214452 
L 232.706228 155.018323 
L 239.613772 155.018323 
L 239.613772 162.822194 
L 232.706228 162.822194 
L 232.706228 170.626065 
L 239.613772 170.626065 
L 239.613772 162.822194 
L 246.521315 162.822194 
L 246.521315 170.626065 
L 253.428859 170.626065 
L 253.428859 162.822194 
L 260.336402 162.822194 
L 260.336402 155.018323 
L 253.428859 155.018323 
L 253.428859 162.822194 
L 246.521315 162.822194 
L 246.521315 155.018323 
L 239.613772 155.018323 
L 239.613772 147.214452 
L 246.521315 147.214452 
L 246.521315 139.410581 
L 239.613772 139.410581 
L 239.613772 131.60671 
L 246.521315 131.60671 
L 246.521315 139.410581 
L 253.428859 139.410581 
L 253.428859 131.60671 
L 260.336402 131.60671 
L 260.336402 123.802839 
L 253.428859 123.802839 
L 253.428859 115.998968 
L 260.336402 115.998968 
L 260.336402 123.802839 
L 267.243946 123.802839 
L 267.243946 131.60671 
L 260.336402 131.60671 
L 260.336402 139.410581 
L 267.243946 139.410581 
L 267.243946 131.60671 
L 274.151489 131.60671 
L 274.151489 139.410581 
L 281.059033 139.410581 
L 281.059033 131.60671 
L 287.966576 131.60671 
L 287.966576 123.802839 
L 281.059033 123.802839 
L 281.059033 131.60671 
L 274.151489 131.60671 
L 274.151489 123.802839 
L 267.243946 123.802839 
L 267.243946 115.998968 
L 274.151489 115.998968 
L 274.151489 108.195097 
L 267.243946 108.195097 
L 267.243946 100.391226 
L 274.151489 100.391226 
L 274.151489 108.195097 
L 281.059033 108.195097 
L 281.059033 100.391226 
L 287.966576 100.391226 
L 287.966576 92.587355 
L 281.059033 92.587355 
L 281.059033 100.391226 
L 274.151489 100.391226 
L 274.151489 92.587355 
L 267.243946 92.587355 
L 267.243946 84.783484 
L 274.151489 84.783484 
L 274.151489 76.979613 
L 267.243946 76.979613 
L 267.243946 84.783484 
L 260.336402 84.783484 
L 260.336402 76.979613 
L 253.428859 76.979613 
L 253.428859 84.783484 
L 246.521315 84.783484 
L 246.521315 92.587355 
L 253.428859 92.587355 
L 253.428859 100.391226 
L 246.521315 100.391226 
L 246.521315 92.587355 
L 239.613772 92.587355 
L 239.613772 84.783484 
L 246.521315 84.783484 
L 246.521315 76.979613 
L 239.613772 76.979613 
L 239.613772 69.175742 
L 246.521315 69.175742 
L 246.521315 76.979613 
L 253.428859 76.979613 
L 253.428859 69.175742 
L 260.336402 69.175742 
L 260.336402 61.371871 
L 253.428859 61.371871 
L 253.428859 53.568 
L 260.336402 53.568 
L 260.336402 61.371871 
L 267.243946 61.371871 
L 267.243946 69.175742 
L 260.336402 69.175742 
L 260.336402 76.979613 
L 267.243946 76.979613 
L 267.243946 69.175742 
L 274.151489 69.175742 
L 274.151489 76.979613 
L 281.059033 76.979613 
L 281.059033 69.175742 
L 287.966576 69.175742 
L 287.966576 61.371871 
L 281.059033 61.371871 
L 281.059033 53.568 
L 287.966576 53.568 
L 287.966576 61.371871 
L 294.87412 61.371871 
L 294.87412 69.175742 
L 287.966576 69.175742 
L 287.966576 76.979613 
L 294.87412 76.979613 
L 294.87412 84.783484 
L 287.966576 84.783484 
L 287.966576 76.979613 
L 281.059033 76.979613 
L 281.059033 84.783484 
L 274.151489 84.783484 
L 274.151489 92.587355 
L 281.059033 92.587355 
L 281.059033 84.783484 
L 287.966576 84.783484 
L 287.966576 92.587355 
L 294.87412 92.587355 
L 294.87412 100.391226 
L 287.966576 100.391226 
L 287.966576 108.195097 
L 294.87412 108.195097 
L 294.87412 100.391226 
L 301.781663 100.391226 
L 301.781663 108.195097 
L 308.689207 108.195097 
L 308.689207 100.391226 
L 315.59675 100.391226 
L 315.59675 92.587355 
L 308.689207 92.587355 
L 308.689207 84.783484 
L 315.59675 84.783484 
L 315.59675 92.587355 
L 322.504294 92.587355 
L 322.504294 100.391226 
L 315.59675 100.391226 
L 315.59675 108.195097 
L 322.504294 108.195097 
L 322.504294 115.998968 
L 315.59675 115.998968 
L 315.59675 108.195097 
L 308.689207 108.195097 
L 308.689207 115.998968 
L 301.781663 115.998968 
L 301.781663 123.802839 
L 308.689207 123.802839 
L 308.689207 131.60671 
L 301.781663 131.60671 
L 301.781663 123.802839 
L 294.87412 123.802839 
L 294.87412 115.998968 
L 301.781663 115.998968 
L 301.781663 108.195097 
L 294.87412 108.195097 
L 294.87412 115.998968 
L 287.966576 115.998968 
L 287.966576 108.195097 
L 281.059033 108.195097 
L 281.059033 115.998968 
L 274.151489 115.998968 
L 274.151489 123.802839 
L 281.059033 123.802839 
L 281.059033 115.998968 
L 287.966576 115.998968 
L 287.966576 123.802839 
L 294.87412 123.802839 
L 294.87412 131.60671 
L 287.966576 131.60671 
L 287.966576 139.410581 
L 294.87412 139.410581 
L 294.87412 147.214452 
L 287.966576 147.214452 
L 287.966576 139.410581 
L 281.059033 139.410581 
L 281.059033 147.214452 
L 274.151489 147.214452 
L 274.151489 155.018323 
L 281.059033 155.018323 
L 281.059033 147.214452 
L 287.966576 147.214452 
L 287.966576 155.018323 
L 294.87412 155.018323 
L 294.87412 162.822194 
L 287.966576 162.822194 
L 287.966576 170.626065 
L 294.87412 170.626065 
L 294.87412 162.822194 
L 301.781663 162.822194 
L 301.781663 170.626065 
L 308.689207 170.626065 
L 308.689207 162.822194 
L 315.59675 162.822194 
L 315.59675 155.018323 
L 308.689207 155.018323 
L 308.689207 147.214452 
L 315.59675 147.214452 
L 315.59675 155.018323 
L 322.504294 155.018323 
L 322.504294 162.822194 
L 315.59675 162.822194 
L 315.59675 170.626065 
L 322.504294 170.626065 
L 322.504294 178.429935 
L 315.59675 178.429935 
L 315.59675 170.626065 
L 308.689207 170.626065 
L 308.689207 178.429935 
L 301.781663 178.429935 
L 301.781663 186.233806 
L 308.689207 186.233806 
L 308.689207 194.037677 
L 301.781663 194.037677 
L 301.781663 186.233806 
L 294.87412 186.233806 
L 294.87412 178.429935 
L 301.781663 178.429935 
L 301.781663 170.626065 
L 294.87412 170.626065 
L 294.87412 178.429935 
L 287.966576 178.429935 
L 287.966576 170.626065 
L 281.059033 170.626065 
L 281.059033 178.429935 
L 274.151489 178.429935 
L 274.151489 186.233806 
L 281.059033 186.233806 
L 281.059033 194.037677 
L 274.151489 194.037677 
L 274.151489 186.233806 
L 267.243946 186.233806 
L 267.243946 178.429935 
L 274.151489 178.429935 
L 274.151489 170.626065 
L 267.243946 170.626065 
L 267.243946 162.822194 
L 274.151489 162.822194 
L 274.151489 170.626065 
L 281.059033 170.626065 
L 281.059033 162.822194 
L 287.966576 162.822194 
L 287.966576 155.018323 
L 281.059033 155.018323 
L 281.059033 162.822194 
L 274.151489 162.822194 
L 274.151489 155.018323 
L 267.243946 155.018323 
L 267.243946 147.214452 
L 274.151489 147.214452 
L 274.151489 139.410581 
L 267.243946 139.410581 
L 267.243946 147.214452 
L 260.336402 147.214452 
L 260.336402 139.410581 
L 253.428859 139.410581 
L 253.428859 147.214452 
L 246.521315 147.214452 
L 246.521315 155.018323 
L 253.428859 155.018323 
L 253.428859 147.214452 
L 260.336402 147.214452 
L 260.336402 155.018323 
L 267.243946 155.018323 
L 267.243946 162.822194 
L 260.336402 162.822194 
L 260.336402 170.626065 
L 267.243946 170.626065 
L 267.243946 178.429935 
L 260.336402 178.429935 
L 260.336402 170.626065 
L 253.428859 170.626065 
L 253.428859 178.429935 
L 246.521315 178.429935 
L 246.521315 186.233806 
L 253.428859 186.233806 
L 253.428859 194.037677 
L 246.521315 194.037677 
L 246.521315 186.233806 
L 239.613772 186.233806 
L 239.613772 178.429935 
L 246.521315 178.429935 
L 246.521315 170.626065 
L 239.613772 170.626065 
L 239.613772 178.429935 
L 232.706228 178.429935 
L 232.706228 170.626065 
L 225.798685 170.626065 
L 225.798685 178.429935 
L 218.891141 178.429935 
L 218.891141 186.233806 
L 225.798685 186.233806 
L 225.798685 178.429935 
L 232.706228 178.429935 
L 232.706228 186.233806 
L 239.613772 186.233806 
L 239.613772 194.037677 
L 232.706228 194.037677 
L 232.706228 201.841548 
L 239.613772 201.841548 
L 239.613772 209.645419 
L 232.706228 209.645419 
L 232.706228 201.841548 
L 225.798685 201.841548 
L 225.798685 209.645419 
L 218.891141 209.645419 
L 218.891141 217.44929 
L 225.798685 217.44929 
L 225.798685 209.645419 
L 232.706228 209.645419 
L 232.706228 217.44929 
L 239.613772 217.44929 
L 239.613772 225.253161 
L 232.706228 225.253161 
L 232.706228 233.057032 
L 239.613772 233.057032 
L 239.613772 225.253161 
L 246.521315 225.253161 
L 246.521315 233.057032 
L 253.428859 233.057032 
L 253.428859 225.253161 
L 260.336402 225.253161 
L 260.336402 217.44929 
L 253.428859 217.44929 
L 253.428859 225.253161 
L 246.521315 225.253161 
L 246.521315 217.44929 
L 239.613772 217.44929 
L 239.613772 209.645419 
L 246.521315 209.645419 
L 246.521315 201.841548 
L 239.613772 201.841548 
L 239.613772 194.037677 
L 246.521315 194.037677 
L 246.521315 201.841548 
L 253.428859 201.841548 
L 253.428859 194.037677 
L 260.336402 194.037677 
L 260.336402 186.233806 
L 253.428859 186.233806 
L 253.428859 178.429935 
L 260.336402 178.429935 
L 260.336402 186.233806 
L 267.243946 186.233806 
L 267.243946 194.037677 
L 260.336402 194.037677 
L 260.336402 201.841548 
L 267.243946 201.841548 
L 267.243946 194.037677 
L 274.151489 194.037677 
L 274.151489 201.841548 
L 281.059033 201.841548 
L 281.059033 194.037677 
L 287.966576 194.037677 
L 287.966576 186.233806 
L 281.059033 186.233806 
L 281.059033 178.429935 
L 287.966576 178.429935 
L 287.966576 186.233806 
L 294.87412 186.233806 
L 294.87412 194.037677 
L 287.966576 194.037677 
L 287.966576 201.841548 
L 294.87412 201.841548 
L 294.87412 209.645419 
L 287.966576 209.645419 
L 287.966576 201.841548 
L 281.059033 201.841548 
L 281.059033 209.645419 
L 274.151489 209.645419 
L 274.151489 217.44929 
L 281.059033 217.44929 
L 281.059033 209.645419 
L 287.966576 209.645419 
L 287.966576 217.44929 
L 294.87412 217.44929 
L 294.87412 225.253161 
L 287.966576 225.253161 
L 287.966576 233.057032 
L 294.87412 233.057032 
L 294.87412 225.253161 
L 301.781663 225.253161 
L 301.781663 233.057032 
L 308.689207 233.057032 
L 308.689207 225.253161 
L 315.59675 225.253161 
L 315.59675 217.44929 
L 308.689207 217.44929 
L 308.689207 209.645419 
L 315.59675 209.645419 
L 315.59675 217.44929 
L 322.504294 217.44929 
L 322.504294 225.253161 
L 315.59675 225.253161 
L 315.59675 233.057032 
L 322.504294 233.057032 
L 322.504294 240.860903 
L 315.59675 240.860903 
L 315.59675 233.057032 
L 308.689207 233.057032 
L 308.689207 240.860903 
L 301.781663 240.860903 
L 301.781663 248.664774 
L 308.689207 248.664774 
L 308.689207 256.468645 
L 301.781663 256.468645 
L 301.781663 248.664774 
L 294.87412 248.664774 
L 294.87412 240.860903 
L 301.781663 240.860903 
L 301.781663 233.057032 
L 294.87412 233.057032 
L 294.87412 240.860903 
L 287.966576 240.860903 
L 287.966576 233.057032 
L 281.059033 233.057032 
L 281.059033 240.860903 
L 274.151489 240.860903 
L 274.151489 248.664774 
L 281.059033 248.664774 
L 281.059033 240.860903 
L 287.966576 240.860903 
L 287.966576 248.664774 
L 294.87412 248.664774 
L 294.87412 256.468645 
L 287.966576 256.468645 
L 287.966576 264.272516 
L 294.87412 264.272516 
L 294.87412 272.076387 
L 287.966576 272.076387 
L 287.966576 264.272516 
L 281.059033 264.272516 
L 281.059033 272.076387 
L 274.151489 272.076387 
L 274.151489 279.880258 
L 281.059033 279.880258 
L 281.059033 272.076387 
L 287.966576 272.076387 
L 287.966576 279.880258 
L 294.87412 279.880258 
L 294.87412 287.684129 
L 287.966576 287.684129 
L 287.966576 295.488 
L 294.87412 295.488 
L 294.87412 287.684129 
L 301.781663 287.684129 
L 301.781663 295.488 
L 308.689207 295.488 
L 308.689207 287.684129 
L 315.59675 287.684129 
L 315.59675 279.880258 
L 308.689207 279.880258 
L 308.689207 287.684129 
L 301.781663 287.684129 
L 301.781663 279.880258 
L 294.87412 279.880258 
L 294.87412 272.076387 
L 301.781663 272.076387 
L 301.781663 264.272516 
L 294.87412 264.272516 
L 294.87412 256.468645 
L 301.781663 256.468645 
L 301.781663 264.272516 
L 308.689207 264.272516 
L 308.689207 256.468645 
L 315.59675 256.468645 
L 315.59675 248.664774 
L 308.689207 248.664774 
L 308.689207 240.860903 
L 315.59675 240.860903 
L 315.59675 248.664774 
L 322.504294 248.664774 
L 322.504294 256.468645 
L 315.59675 256.468645 
L 315.59675 264.272516 
L 322.504294 264.272516 
L 322.504294 256.468645 
L 329.411838 256.468645 
L 329.411838 264.272516 
L 336.319381 264.272516 
L 336.319381 256.468645 
L 343.226925 256.468645 
L 343.226925 248.664774 
L 336.319381 248.664774 
L 336.319381 240.860903 
L 343.226925 240.860903 
L 343.226925 248.664774 
L 350.134468 248.664774 
L 350.134468 256.468645 
L 343.226925 256.468645 
L 343.226925 264.272516 
L 350.134468 264.272516 
L 350.134468 272.076387 
L 343.226925 272.076387 
L 343.226925 264.272516 
L 336.319381 264.272516 
L 336.319381 272.076387 
L 329.411838 272.076387 
L 329.411838 279.880258 
L 336.319381 279.880258 
L 336.319381 272.076387 
L 343.226925 272.076387 
L 343.226925 279.880258 
L 350.134468 279.880258 
L 350.134468 287.684129 
L 343.226925 287.684129 
L 343.226925 295.488 
L 350.134468 295.488 
L 350.134468 287.684129 
L 357.042012 287.684129 
L 357.042012 295.488 
L 363.949555 295.488 
L 363.949555 287.684129 
L 370.857099 287.684129 
L 370.857099 279.880258 
L 363.949555 279.880258 
L 363.949555 287.684129 
L 357.042012 287.684129 
L 357.042012 279.880258 
L 350.134468 279.880258 
L 350.134468 272.076387 
L 357.042012 272.076387 
L 357.042012 264.272516 
L 350.134468 264.272516 
L 350.134468 256.468645 
L 357.042012 256.468645 
L 357.042012 264.272516 
L 363.949555 264.272516 
L 363.949555 256.468645 
L 370.857099 256.468645 
L 370.857099 248.664774 
L 363.949555 248.664774 
L 363.949555 240.860903 
L 370.857099 240.860903 
L 370.857099 248.664774 
L 377.764642 248.664774 
L 377.764642 256.468645 
L 370.857099 256.468645 
L 370.857099 264.272516 
L 377.764642 264.272516 
L 377.764642 256.468645 
L 384.672186 256.468645 
L 384.672186 264.272516 
L 391.579729 264.272516 
L 391.579729 256.468645 
L 398.487273 256.468645 
L 398.487273 248.664774 
L 391.579729 248.664774 
L 391.579729 256.468645 
L 384.672186 256.468645 
L 384.672186 248.664774 
L 377.764642 248.664774 
L 377.764642 240.860903 
L 384.672186 240.860903 
L 384.672186 233.057032 
L 377.764642 233.057032 
L 377.764642 225.253161 
L 384.672186 225.253161 
L 384.672186 233.057032 
L 391.579729 233.057032 
L 391.579729 225.253161 
L 398.487273 225.253161 
L 398.487273 217.44929 
L 391.579729 217.44929 
L 391.579729 225.253161 
L 384.672186 225.253161 
L 384.672186 217.44929 
L 377.764642 217.44929 
L 377.764642 209.645419 
L 384.672186 209.645419 
L 384.672186 201.841548 
L 377.764642 201.841548 
L 377.764642 209.645419 
L 370.857099 209.645419 
L 370.857099 201.841548 
L 363.949555 201.841548 
L 363.949555 209.645419 
L 357.042012 209.645419 
L 357.042012 217.44929 
L 363.949555 217.44929 
L 363.949555 217.44929 
" clip-path="url(#p71a858b007)" style="fill: none; stroke: #1f77b4; stroke-width: 1.5; stroke-linecap: square"/>
   </g>
   <g id="patch_3">
    <path d="M 57.6 307.584 
L 57.6 41.472 
" style="fill: none; stroke: #000000; stroke-width: 0.8; stroke-linejoin: miter; stroke-linecap: square"/>
   </g>
   <g id="patch_4">
    <path d="M 414.72 307.584 
L 414.72 41.472 
" style="fill: none; stroke: #000000; stroke-width: 0.8; stroke-linejoin: miter; stroke-linecap: square"/>
   </g>
   <g id="patch_5">
    <path d="M 57.6 307.584 
L 414.72 307.584 
" style="fill: none; stroke: #000000; stroke-width: 0.8; stroke-linejoin: miter; stroke-linecap: square"/>
   </g>
   <g id="patch_6">
    <path d="M 57.6 41.472 
L 414.72 41.472 
" style="fill: none; stroke: #000000; stroke-width: 0.8; stroke-linejoin: miter; stroke-linecap: square"/>
   </g>
  </g>
 </g>
 <defs>
  <clipPath id="p71a858b007">
   <rect x="57.6" y="41.472" width="357.12" height="266.112"/>
  </clipPath>
 </defs>
</svg>
